<svg xmlns="http://www.w3.org/2000/svg" viewBox="0 0 26 25">
    <path
        d="M203.828427,323 L212.99224,323 C218.514012,323 222.995627,327.483196 222.995627,333 C222.995627,338.525621 218.522607,343 212.99224,343 L201,343 C199.895431,343 199,342.104569 199,341 C199,339.895431 199.895431,339 201,339 L212.99224,339 C216.313196,339 218.995627,336.316754 218.995627,333 C218.995627,329.692019 216.304557,327 212.99224,327 L203.828427,327 L205.414214,328.585786 C206.195262,329.366835 206.195262,330.633165 205.414214,331.414214 C204.633165,332.195262 203.366835,332.195262 202.585786,331.414214 L197.585786,326.414214 C196.804738,325.633165 196.804738,324.366835 197.585786,323.585786 L202.585786,318.585786 C203.366835,317.804738 204.633165,317.804738 205.414214,318.585786 C206.195262,319.366835 206.195262,320.633165 205.414214,321.414214 L203.828427,323 Z"
        transform="translate(-197 -318)" />
</svg>