<svg xmlns="http://www.w3.org/2000/svg" viewBox="-1 -1 102 102">
    <path
        d="M30.2817459,57.4666977L10.5220966,77.2212601L2.507972,69.2018738L2.5006828,97.4927139L30.7966099,97.5  l-8.8251724-8.8312759l19.7579517-19.7545624L30.2817459,57.4666977z M58.2706261,31.0860081l11.4473,11.4472942  l19.7579498-19.7545586l8.0141296,8.0193844l0.0092773-28.2908382L69.2050552,2.5l8.8251724,8.8292456L58.2706261,31.0860081z   M89.4758759,77.2212601L69.7196198,57.4666939l-11.4472961,11.4473l19.7579498,19.7545547l-8.8251801,8.8312836  l28.2942276-0.0072861l-0.0092773-28.2891464L89.4758759,77.2212601z M10.5220985,22.7787418l19.7579536,19.7545605  l11.4493332-11.447298L21.9714317,11.3314447l8.8251724-8.8292446L2.5006778,2.5094888l0.0092771,28.2908382L10.5220985,22.7787418z" />
</svg>