<svg xmlns="http://www.w3.org/2000/svg" viewBox="-1 -1 102 102">
    <path
        d="M100,46H64.315C62.566,39.73,56.827,35.125,50,35.125S37.434,39.73,35.685,46H0v8h35.685  C37.434,60.269,43.173,64.875,50,64.875S62.566,60.269,64.315,54H100V46z" />
    <path
        d="M85.125,70.25c-6.827,0-12.566,4.605-14.315,10.875H0v8h70.81C72.559,95.394,78.298,100,85.125,100  C93.34,100,100,93.34,100,85.125C100,76.91,93.34,70.25,85.125,70.25z" />
    <path
        d="M14.875,29.75c6.827,0,12.566-4.605,14.315-10.875H100v-8H29.19C27.441,4.606,21.702,0,14.875,0C6.66,0,0,6.66,0,14.875 C0,23.09,6.66,29.75,14.875,29.75z" />
</svg>