<svg xmlns="http://www.w3.org/2000/svg" viewBox="0 0 100 100">
    <path
        d="M41.7294006,42.5255089l-0.0092773-28.2904816l-8.0140228,8.0192833L13.9483967,2.5L2.5012438,13.9471531  l19.7577019,19.7543125l-8.8250608,8.8311653L41.7294006,42.5255089z M41.7294006,57.4761887l-28.2955685-0.0072899  l8.8250618,8.8291359L2.5011909,86.0523453l11.4471531,11.4471512l19.7577019-19.7543182l8.0140266,8.0192871L41.7294006,57.4761887  z M58.2704315,57.4761887l0.0092773,28.2887802l8.0140228-8.0192795L86.0514297,97.5l11.4471512-11.4471512L77.7408829,66.2985382  l8.823204-8.8291321L58.2704315,57.4761887z M58.2797089,14.2355375l-0.0092773,28.2887802l28.293869,0.0072899  l-8.8231964-8.8291321l19.7577057-19.7543106L86.0516586,2.5010133L66.2939606,22.257021L58.2797089,14.2355375z" />
</svg>