<svg xmlns="http://www.w3.org/2000/svg" viewBox="2 2 20 20">
    <path
        d="M12.472,4.118a1,1,0,0,0-1.027.05L5.7,8H3A1,1,0,0,0,2,9v6a1,1,0,0,0,1,1H5.7l5.748,3.832A1.007,1.007,0,0,0,13,19V5A1,1,0,0,0,12.472,4.118Z" />
    <path
        d="M16.528,6.5a1,1,0,0,0-1.732,1,9.008,9.008,0,0,1,0,9,1,1,0,0,0,.365,1.366.989.989,0,0,0,.5.135,1,1,0,0,0,.867-.5,11.015,11.015,0,0,0,0-11Z" />
    <path
        d="M18.785,2.72a1,1,0,0,0-1.57,1.238,13,13,0,0,1,0,16.084,1,1,0,1,0,1.57,1.238,15,15,0,0,0,0-18.56Z" />
</svg>